<svg preserveAspectRatio="none" overflow="visible" style="display: block;" width="1376" height="1380" viewBox="0 0 1376 1380" fill="none" xmlns="http://www.w3.org/2000/svg">
<g id="Timber desk / matching wood grain" opacity="0.55" clip-path="url(#clip0_0_21)">
<g id="Vector">
<path d="M0 120H1376Z" fill="black"/>
<path d="M0 120H1376" stroke="#21170F" stroke-width="3"/>
</g>
<g id="Vector_2">
<path d="M0 240H1376Z" fill="black"/>
<path d="M0 240H1376" stroke="#21170F" stroke-width="3"/>
</g>
<g id="Vector_3">
<path d="M0 360H1376Z" fill="black"/>
<path d="M0 360H1376" stroke="#21170F" stroke-width="3"/>
</g>
<g id="Vector_4">
<path d="M0 480H1376Z" fill="black"/>
<path d="M0 480H1376" stroke="#21170F" stroke-width="3"/>
</g>
<g id="Vector_5">
<path d="M0 600H1376Z" fill="black"/>
<path d="M0 600H1376" stroke="#21170F" stroke-width="3"/>
</g>
<g id="Vector_6">
<path d="M0 720H1376Z" fill="black"/>
<path d="M0 720H1376" stroke="#21170F" stroke-width="3"/>
</g>
<g id="Vector_7">
<path d="M0 840H1376Z" fill="black"/>
<path d="M0 840H1376" stroke="#21170F" stroke-width="3"/>
</g>
<g id="Vector_8">
<path d="M0 960H1376Z" fill="black"/>
<path d="M0 960H1376" stroke="#21170F" stroke-width="3"/>
</g>
<g id="Vector_9">
<path d="M0 1080H1376Z" fill="black"/>
<path d="M0 1080H1376" stroke="#21170F" stroke-width="3"/>
</g>
<g id="Vector_10">
<path d="M0 1200H1376Z" fill="black"/>
<path d="M0 1200H1376" stroke="#21170F" stroke-width="3"/>
</g>
<g id="Vector_11">
<path d="M0 1320H1376Z" fill="black"/>
<path d="M0 1320H1376" stroke="#21170F" stroke-width="3"/>
</g>
<path id="Vector_12" d="M0 14C316.48 11 646.72 17 935.68 14C1224.64 11 1210.88 11 1376 16" stroke="#C49B67" stroke-opacity="0.1" stroke-width="0.7"/>
<path id="Vector_13" d="M0 31C316.48 23 646.72 39 935.68 31C1224.64 23 1210.88 23 1376 33" stroke="#C49B67" stroke-opacity="0.1" stroke-width="0.7"/>
<path id="Vector_14" d="M0 48C316.48 35 646.72 61 935.68 48C1224.64 35 1210.88 35 1376 50" stroke="#C49B67" stroke-opacity="0.1" stroke-width="0.7"/>
<path id="Vector_15" d="M0 65C316.48 47 646.72 83 935.68 65C1224.64 47 1210.88 47 1376 67" stroke="#C49B67" stroke-opacity="0.1" stroke-width="0.7"/>
<path id="Vector_16" d="M0 82C316.48 78 646.72 86 935.68 82C1224.64 78 1210.88 78 1376 84" stroke="#C49B67" stroke-opacity="0.1" stroke-width="0.7"/>
<path id="Vector_17" d="M0 99C316.48 90 646.72 108 935.68 99C1224.64 90 1210.88 90 1376 101" stroke="#C49B67" stroke-opacity="0.1" stroke-width="0.7"/>
<path id="Vector_18" d="M0 116C316.48 102 646.72 130 935.68 116C1224.64 102 1210.88 102 1376 118" stroke="#C49B67" stroke-opacity="0.1" stroke-width="0.7"/>
<path id="Vector_19" d="M0 133C316.48 133 646.72 133 935.68 133C1224.64 133 1210.88 133 1376 135" stroke="#C49B67" stroke-opacity="0.1" stroke-width="0.7"/>
<path id="Vector_20" d="M0 150C316.48 145 646.72 155 935.68 150C1224.64 145 1210.88 145 1376 152" stroke="#C49B67" stroke-opacity="0.1" stroke-width="0.7"/>
<path id="Vector_21" d="M0 167C316.48 157 646.72 177 935.68 167C1224.64 157 1210.88 157 1376 169" stroke="#C49B67" stroke-opacity="0.1" stroke-width="0.7"/>
<path id="Vector_22" d="M0 184C316.48 169 646.72 199 935.68 184C1224.64 169 1210.88 169 1376 186" stroke="#C49B67" stroke-opacity="0.1" stroke-width="0.7"/>
<path id="Vector_23" d="M0 201C316.48 200 646.72 202 935.68 201C1224.64 200 1210.88 200 1376 203" stroke="#C49B67" stroke-opacity="0.1" stroke-width="0.7"/>
<path id="Vector_24" d="M0 218C316.48 212 646.72 224 935.68 218C1224.64 212 1210.88 212 1376 220" stroke="#C49B67" stroke-opacity="0.1" stroke-width="0.7"/>
<path id="Vector_25" d="M0 235C316.48 224 646.72 246 935.68 235C1224.64 224 1210.88 224 1376 237" stroke="#C49B67" stroke-opacity="0.1" stroke-width="0.7"/>
<path id="Vector_26" d="M0 252C316.48 236 646.72 268 935.68 252C1224.64 236 1210.88 236 1376 254" stroke="#C49B67" stroke-opacity="0.1" stroke-width="0.7"/>
<path id="Vector_27" d="M0 269C316.48 267 646.72 271 935.68 269C1224.64 267 1210.88 267 1376 271" stroke="#C49B67" stroke-opacity="0.1" stroke-width="0.7"/>
<path id="Vector_28" d="M0 286C316.48 279 646.72 293 935.68 286C1224.64 279 1210.88 279 1376 288" stroke="#C49B67" stroke-opacity="0.1" stroke-width="0.7"/>
<path id="Vector_29" d="M0 303C316.48 291 646.72 315 935.68 303C1224.64 291 1210.88 291 1376 305" stroke="#C49B67" stroke-opacity="0.1" stroke-width="0.7"/>
<path id="Vector_30" d="M0 320C316.48 303 646.72 337 935.68 320C1224.64 303 1210.88 303 1376 322" stroke="#C49B67" stroke-opacity="0.1" stroke-width="0.7"/>
<path id="Vector_31" d="M0 337C316.48 334 646.72 340 935.68 337C1224.64 334 1210.88 334 1376 339" stroke="#C49B67" stroke-opacity="0.1" stroke-width="0.7"/>
<path id="Vector_32" d="M0 354C316.48 346 646.72 362 935.68 354C1224.64 346 1210.88 346 1376 356" stroke="#C49B67" stroke-opacity="0.1" stroke-width="0.7"/>
<path id="Vector_33" d="M0 371C316.48 358 646.72 384 935.68 371C1224.64 358 1210.88 358 1376 373" stroke="#C49B67" stroke-opacity="0.1" stroke-width="0.7"/>
<path id="Vector_34" d="M0 388C316.48 370 646.72 406 935.68 388C1224.64 370 1210.88 370 1376 390" stroke="#C49B67" stroke-opacity="0.1" stroke-width="0.7"/>
<path id="Vector_35" d="M0 405C316.48 401 646.72 409 935.68 405C1224.64 401 1210.88 401 1376 407" stroke="#C49B67" stroke-opacity="0.1" stroke-width="0.7"/>
<path id="Vector_36" d="M0 422C316.48 413 646.72 431 935.68 422C1224.64 413 1210.88 413 1376 424" stroke="#C49B67" stroke-opacity="0.1" stroke-width="0.7"/>
<path id="Vector_37" d="M0 439C316.48 425 646.72 453 935.68 439C1224.64 425 1210.88 425 1376 441" stroke="#C49B67" stroke-opacity="0.1" stroke-width="0.7"/>
<path id="Vector_38" d="M0 456C316.48 456 646.72 456 935.68 456C1224.64 456 1210.88 456 1376 458" stroke="#C49B67" stroke-opacity="0.1" stroke-width="0.7"/>
<path id="Vector_39" d="M0 473C316.48 468 646.72 478 935.68 473C1224.64 468 1210.88 468 1376 475" stroke="#C49B67" stroke-opacity="0.1" stroke-width="0.7"/>
<path id="Vector_40" d="M0 490C316.48 480 646.72 500 935.68 490C1224.64 480 1210.88 480 1376 492" stroke="#C49B67" stroke-opacity="0.1" stroke-width="0.7"/>
<path id="Vector_41" d="M0 507C316.48 492 646.72 522 935.68 507C1224.64 492 1210.88 492 1376 509" stroke="#C49B67" stroke-opacity="0.1" stroke-width="0.7"/>
<path id="Vector_42" d="M0 524C316.48 523 646.72 525 935.68 524C1224.64 523 1210.88 523 1376 526" stroke="#C49B67" stroke-opacity="0.1" stroke-width="0.7"/>
<path id="Vector_43" d="M0 541C316.48 535 646.72 547 935.68 541C1224.64 535 1210.88 535 1376 543" stroke="#C49B67" stroke-opacity="0.1" stroke-width="0.7"/>
<path id="Vector_44" d="M0 558C316.48 547 646.72 569 935.68 558C1224.64 547 1210.88 547 1376 560" stroke="#C49B67" stroke-opacity="0.1" stroke-width="0.7"/>
<path id="Vector_45" d="M0 575C316.48 559 646.72 591 935.68 575C1224.64 559 1210.88 559 1376 577" stroke="#C49B67" stroke-opacity="0.1" stroke-width="0.7"/>
<path id="Vector_46" d="M0 592C316.48 590 646.72 594 935.68 592C1224.64 590 1210.88 590 1376 594" stroke="#C49B67" stroke-opacity="0.1" stroke-width="0.7"/>
<path id="Vector_47" d="M0 609C316.48 602 646.72 616 935.68 609C1224.64 602 1210.88 602 1376 611" stroke="#C49B67" stroke-opacity="0.1" stroke-width="0.7"/>
<path id="Vector_48" d="M0 626C316.48 614 646.72 638 935.68 626C1224.64 614 1210.88 614 1376 628" stroke="#C49B67" stroke-opacity="0.1" stroke-width="0.7"/>
<path id="Vector_49" d="M0 643C316.48 626 646.72 660 935.68 643C1224.64 626 1210.88 626 1376 645" stroke="#C49B67" stroke-opacity="0.1" stroke-width="0.7"/>
<path id="Vector_50" d="M0 660C316.48 657 646.72 663 935.68 660C1224.64 657 1210.88 657 1376 662" stroke="#C49B67" stroke-opacity="0.1" stroke-width="0.7"/>
<path id="Vector_51" d="M0 677C316.48 669 646.72 685 935.68 677C1224.64 669 1210.88 669 1376 679" stroke="#C49B67" stroke-opacity="0.1" stroke-width="0.7"/>
<path id="Vector_52" d="M0 694C316.48 681 646.72 707 935.68 694C1224.64 681 1210.88 681 1376 696" stroke="#C49B67" stroke-opacity="0.1" stroke-width="0.7"/>
<path id="Vector_53" d="M0 711C316.48 693 646.72 729 935.68 711C1224.64 693 1210.88 693 1376 713" stroke="#C49B67" stroke-opacity="0.1" stroke-width="0.7"/>
<path id="Vector_54" d="M0 728C316.48 724 646.72 732 935.68 728C1224.64 724 1210.88 724 1376 730" stroke="#C49B67" stroke-opacity="0.1" stroke-width="0.7"/>
<path id="Vector_55" d="M0 745C316.48 736 646.72 754 935.68 745C1224.64 736 1210.88 736 1376 747" stroke="#C49B67" stroke-opacity="0.1" stroke-width="0.7"/>
<path id="Vector_56" d="M0 762C316.48 748 646.72 776 935.68 762C1224.64 748 1210.88 748 1376 764" stroke="#C49B67" stroke-opacity="0.1" stroke-width="0.7"/>
<path id="Vector_57" d="M0 779C316.48 779 646.72 779 935.68 779C1224.64 779 1210.88 779 1376 781" stroke="#C49B67" stroke-opacity="0.1" stroke-width="0.7"/>
<path id="Vector_58" d="M0 796C316.48 791 646.72 801 935.68 796C1224.64 791 1210.88 791 1376 798" stroke="#C49B67" stroke-opacity="0.1" stroke-width="0.7"/>
<path id="Vector_59" d="M0 813C316.48 803 646.72 823 935.68 813C1224.64 803 1210.88 803 1376 815" stroke="#C49B67" stroke-opacity="0.1" stroke-width="0.7"/>
<path id="Vector_60" d="M0 830C316.48 815 646.72 845 935.68 830C1224.64 815 1210.88 815 1376 832" stroke="#C49B67" stroke-opacity="0.1" stroke-width="0.7"/>
<path id="Vector_61" d="M0 847C316.48 846 646.72 848 935.68 847C1224.64 846 1210.88 846 1376 849" stroke="#C49B67" stroke-opacity="0.1" stroke-width="0.7"/>
<path id="Vector_62" d="M0 864C316.48 858 646.72 870 935.68 864C1224.64 858 1210.88 858 1376 866" stroke="#C49B67" stroke-opacity="0.1" stroke-width="0.7"/>
<path id="Vector_63" d="M0 881C316.48 870 646.72 892 935.68 881C1224.64 870 1210.88 870 1376 883" stroke="#C49B67" stroke-opacity="0.1" stroke-width="0.7"/>
<path id="Vector_64" d="M0 898C316.48 882 646.72 914 935.68 898C1224.64 882 1210.88 882 1376 900" stroke="#C49B67" stroke-opacity="0.1" stroke-width="0.7"/>
<path id="Vector_65" d="M0 915C316.48 913 646.72 917 935.68 915C1224.64 913 1210.88 913 1376 917" stroke="#C49B67" stroke-opacity="0.1" stroke-width="0.7"/>
<path id="Vector_66" d="M0 932C316.48 925 646.72 939 935.68 932C1224.64 925 1210.88 925 1376 934" stroke="#C49B67" stroke-opacity="0.1" stroke-width="0.7"/>
<path id="Vector_67" d="M0 949C316.48 937 646.72 961 935.68 949C1224.64 937 1210.88 937 1376 951" stroke="#C49B67" stroke-opacity="0.1" stroke-width="0.7"/>
<path id="Vector_68" d="M0 966C316.48 949 646.72 983 935.68 966C1224.64 949 1210.88 949 1376 968" stroke="#C49B67" stroke-opacity="0.1" stroke-width="0.7"/>
<path id="Vector_69" d="M0 983C316.48 980 646.72 986 935.68 983C1224.64 980 1210.88 980 1376 985" stroke="#C49B67" stroke-opacity="0.1" stroke-width="0.7"/>
<path id="Vector_70" d="M0 1000C316.48 992 646.72 1008 935.68 1000C1224.64 992 1210.88 992 1376 1002" stroke="#C49B67" stroke-opacity="0.1" stroke-width="0.7"/>
<path id="Vector_71" d="M0 1017C316.48 1004 646.72 1030 935.68 1017C1224.64 1004 1210.88 1004 1376 1019" stroke="#C49B67" stroke-opacity="0.1" stroke-width="0.7"/>
<path id="Vector_72" d="M0 1034C316.48 1016 646.72 1052 935.68 1034C1224.64 1016 1210.88 1016 1376 1036" stroke="#C49B67" stroke-opacity="0.1" stroke-width="0.7"/>
<path id="Vector_73" d="M0 1051C316.48 1047 646.72 1055 935.68 1051C1224.64 1047 1210.88 1047 1376 1053" stroke="#C49B67" stroke-opacity="0.1" stroke-width="0.7"/>
<path id="Vector_74" d="M0 1068C316.48 1059 646.72 1077 935.68 1068C1224.64 1059 1210.88 1059 1376 1070" stroke="#C49B67" stroke-opacity="0.1" stroke-width="0.7"/>
<path id="Vector_75" d="M0 1085C316.48 1071 646.72 1099 935.68 1085C1224.64 1071 1210.88 1071 1376 1087" stroke="#C49B67" stroke-opacity="0.1" stroke-width="0.7"/>
<path id="Vector_76" d="M0 1102C316.48 1102 646.72 1102 935.68 1102C1224.64 1102 1210.88 1102 1376 1104" stroke="#C49B67" stroke-opacity="0.1" stroke-width="0.7"/>
<path id="Vector_77" d="M0 1119C316.48 1114 646.72 1124 935.68 1119C1224.64 1114 1210.88 1114 1376 1121" stroke="#C49B67" stroke-opacity="0.1" stroke-width="0.7"/>
<path id="Vector_78" d="M0 1136C316.48 1126 646.72 1146 935.68 1136C1224.64 1126 1210.88 1126 1376 1138" stroke="#C49B67" stroke-opacity="0.1" stroke-width="0.7"/>
<path id="Vector_79" d="M0 1153C316.48 1138 646.72 1168 935.68 1153C1224.64 1138 1210.88 1138 1376 1155" stroke="#C49B67" stroke-opacity="0.1" stroke-width="0.7"/>
<path id="Vector_80" d="M0 1170C316.48 1169 646.72 1171 935.68 1170C1224.64 1169 1210.88 1169 1376 1172" stroke="#C49B67" stroke-opacity="0.1" stroke-width="0.7"/>
<path id="Vector_81" d="M0 1187C316.48 1181 646.72 1193 935.68 1187C1224.64 1181 1210.88 1181 1376 1189" stroke="#C49B67" stroke-opacity="0.1" stroke-width="0.7"/>
<path id="Vector_82" d="M0 1204C316.48 1193 646.72 1215 935.68 1204C1224.64 1193 1210.88 1193 1376 1206" stroke="#C49B67" stroke-opacity="0.1" stroke-width="0.7"/>
<path id="Vector_83" d="M0 1221C316.48 1205 646.72 1237 935.68 1221C1224.64 1205 1210.88 1205 1376 1223" stroke="#C49B67" stroke-opacity="0.1" stroke-width="0.7"/>
<path id="Vector_84" d="M0 1238C316.48 1236 646.72 1240 935.68 1238C1224.64 1236 1210.88 1236 1376 1240" stroke="#C49B67" stroke-opacity="0.1" stroke-width="0.7"/>
<path id="Vector_85" d="M0 1255C316.48 1248 646.72 1262 935.68 1255C1224.64 1248 1210.88 1248 1376 1257" stroke="#C49B67" stroke-opacity="0.1" stroke-width="0.7"/>
<path id="Vector_86" d="M0 1272C316.48 1260 646.72 1284 935.68 1272C1224.64 1260 1210.88 1260 1376 1274" stroke="#C49B67" stroke-opacity="0.1" stroke-width="0.7"/>
<path id="Vector_87" d="M0 1289C316.48 1272 646.72 1306 935.68 1289C1224.64 1272 1210.88 1272 1376 1291" stroke="#C49B67" stroke-opacity="0.1" stroke-width="0.7"/>
<path id="Vector_88" d="M0 1306C316.48 1303 646.72 1309 935.68 1306C1224.64 1303 1210.88 1303 1376 1308" stroke="#C49B67" stroke-opacity="0.1" stroke-width="0.7"/>
<path id="Vector_89" d="M0 1323C316.48 1315 646.72 1331 935.68 1323C1224.64 1315 1210.88 1315 1376 1325" stroke="#C49B67" stroke-opacity="0.1" stroke-width="0.7"/>
<path id="Vector_90" d="M0 1340C316.48 1327 646.72 1353 935.68 1340C1224.64 1327 1210.88 1327 1376 1342" stroke="#C49B67" stroke-opacity="0.1" stroke-width="0.7"/>
<path id="Vector_91" d="M0 1357C316.48 1339 646.72 1375 935.68 1357C1224.64 1339 1210.88 1339 1376 1359" stroke="#C49B67" stroke-opacity="0.1" stroke-width="0.7"/>
<path id="Vector_92" d="M0 1374C316.48 1370 646.72 1378 935.68 1374C1224.64 1370 1210.88 1370 1376 1376" stroke="#C49B67" stroke-opacity="0.1" stroke-width="0.7"/>
</g>
<defs>
<clipPath id="clip0_0_21">
<rect width="1376" height="1380" fill="white"/>
</clipPath>
</defs>
</svg>
