<svg preserveAspectRatio="none" overflow="visible" style="display: block;" width="1440" height="1504" viewBox="0 0 1440 1504" fill="none" xmlns="http://www.w3.org/2000/svg">
<g id="Timber backdrop / planks and fine wood grain" opacity="0.55" clip-path="url(#clip0_0_114)">
<g id="Vector">
<path d="M0 120H1440Z" fill="black"/>
<path d="M0 120H1440" stroke="#21170F" stroke-width="3"/>
</g>
<g id="Vector_2">
<path d="M0 240H1440Z" fill="black"/>
<path d="M0 240H1440" stroke="#21170F" stroke-width="3"/>
</g>
<g id="Vector_3">
<path d="M0 360H1440Z" fill="black"/>
<path d="M0 360H1440" stroke="#21170F" stroke-width="3"/>
</g>
<g id="Vector_4">
<path d="M0 480H1440Z" fill="black"/>
<path d="M0 480H1440" stroke="#21170F" stroke-width="3"/>
</g>
<g id="Vector_5">
<path d="M0 600H1440Z" fill="black"/>
<path d="M0 600H1440" stroke="#21170F" stroke-width="3"/>
</g>
<g id="Vector_6">
<path d="M0 720H1440Z" fill="black"/>
<path d="M0 720H1440" stroke="#21170F" stroke-width="3"/>
</g>
<g id="Vector_7">
<path d="M0 840H1440Z" fill="black"/>
<path d="M0 840H1440" stroke="#21170F" stroke-width="3"/>
</g>
<g id="Vector_8">
<path d="M0 960H1440Z" fill="black"/>
<path d="M0 960H1440" stroke="#21170F" stroke-width="3"/>
</g>
<g id="Vector_9">
<path d="M0 1080H1440Z" fill="black"/>
<path d="M0 1080H1440" stroke="#21170F" stroke-width="3"/>
</g>
<g id="Vector_10">
<path d="M0 1200H1440Z" fill="black"/>
<path d="M0 1200H1440" stroke="#21170F" stroke-width="3"/>
</g>
<g id="Vector_11">
<path d="M0 1320H1440Z" fill="black"/>
<path d="M0 1320H1440" stroke="#21170F" stroke-width="3"/>
</g>
<g id="Vector_12">
<path d="M0 1440H1440Z" fill="black"/>
<path d="M0 1440H1440" stroke="#21170F" stroke-width="3"/>
</g>
<path id="Vector_13" d="M0 14C331.2 11 676.8 17 979.2 14C1281.6 11 1267.2 11 1440 16" stroke="#C49B67" stroke-opacity="0.1" stroke-width="0.7"/>
<path id="Vector_14" d="M0 31C331.2 23 676.8 39 979.2 31C1281.6 23 1267.2 23 1440 33" stroke="#C49B67" stroke-opacity="0.1" stroke-width="0.7"/>
<path id="Vector_15" d="M0 48C331.2 35 676.8 61 979.2 48C1281.6 35 1267.2 35 1440 50" stroke="#C49B67" stroke-opacity="0.1" stroke-width="0.7"/>
<path id="Vector_16" d="M0 65C331.2 47 676.8 83 979.2 65C1281.6 47 1267.2 47 1440 67" stroke="#C49B67" stroke-opacity="0.1" stroke-width="0.7"/>
<path id="Vector_17" d="M0 82C331.2 78 676.8 86 979.2 82C1281.6 78 1267.2 78 1440 84" stroke="#C49B67" stroke-opacity="0.1" stroke-width="0.7"/>
<path id="Vector_18" d="M0 99C331.2 90 676.8 108 979.2 99C1281.6 90 1267.2 90 1440 101" stroke="#C49B67" stroke-opacity="0.1" stroke-width="0.7"/>
<path id="Vector_19" d="M0 116C331.2 102 676.8 130 979.2 116C1281.6 102 1267.2 102 1440 118" stroke="#C49B67" stroke-opacity="0.1" stroke-width="0.7"/>
<path id="Vector_20" d="M0 133C331.2 133 676.8 133 979.2 133C1281.6 133 1267.2 133 1440 135" stroke="#C49B67" stroke-opacity="0.1" stroke-width="0.7"/>
<path id="Vector_21" d="M0 150C331.2 145 676.8 155 979.2 150C1281.6 145 1267.2 145 1440 152" stroke="#C49B67" stroke-opacity="0.1" stroke-width="0.7"/>
<path id="Vector_22" d="M0 167C331.2 157 676.8 177 979.2 167C1281.6 157 1267.2 157 1440 169" stroke="#C49B67" stroke-opacity="0.1" stroke-width="0.7"/>
<path id="Vector_23" d="M0 184C331.2 169 676.8 199 979.2 184C1281.6 169 1267.2 169 1440 186" stroke="#C49B67" stroke-opacity="0.1" stroke-width="0.7"/>
<path id="Vector_24" d="M0 201C331.2 200 676.8 202 979.2 201C1281.6 200 1267.2 200 1440 203" stroke="#C49B67" stroke-opacity="0.1" stroke-width="0.7"/>
<path id="Vector_25" d="M0 218C331.2 212 676.8 224 979.2 218C1281.6 212 1267.2 212 1440 220" stroke="#C49B67" stroke-opacity="0.1" stroke-width="0.7"/>
<path id="Vector_26" d="M0 235C331.2 224 676.8 246 979.2 235C1281.6 224 1267.2 224 1440 237" stroke="#C49B67" stroke-opacity="0.1" stroke-width="0.7"/>
<path id="Vector_27" d="M0 252C331.2 236 676.8 268 979.2 252C1281.6 236 1267.2 236 1440 254" stroke="#C49B67" stroke-opacity="0.1" stroke-width="0.7"/>
<path id="Vector_28" d="M0 269C331.2 267 676.8 271 979.2 269C1281.6 267 1267.2 267 1440 271" stroke="#C49B67" stroke-opacity="0.1" stroke-width="0.7"/>
<path id="Vector_29" d="M0 286C331.2 279 676.8 293 979.2 286C1281.6 279 1267.2 279 1440 288" stroke="#C49B67" stroke-opacity="0.1" stroke-width="0.7"/>
<path id="Vector_30" d="M0 303C331.2 291 676.8 315 979.2 303C1281.6 291 1267.2 291 1440 305" stroke="#C49B67" stroke-opacity="0.1" stroke-width="0.7"/>
<path id="Vector_31" d="M0 320C331.2 303 676.8 337 979.2 320C1281.6 303 1267.2 303 1440 322" stroke="#C49B67" stroke-opacity="0.1" stroke-width="0.7"/>
<path id="Vector_32" d="M0 337C331.2 334 676.8 340 979.2 337C1281.6 334 1267.2 334 1440 339" stroke="#C49B67" stroke-opacity="0.1" stroke-width="0.7"/>
<path id="Vector_33" d="M0 354C331.2 346 676.8 362 979.2 354C1281.6 346 1267.2 346 1440 356" stroke="#C49B67" stroke-opacity="0.1" stroke-width="0.7"/>
<path id="Vector_34" d="M0 371C331.2 358 676.8 384 979.2 371C1281.6 358 1267.2 358 1440 373" stroke="#C49B67" stroke-opacity="0.1" stroke-width="0.7"/>
<path id="Vector_35" d="M0 388C331.2 370 676.8 406 979.2 388C1281.6 370 1267.2 370 1440 390" stroke="#C49B67" stroke-opacity="0.1" stroke-width="0.7"/>
<path id="Vector_36" d="M0 405C331.2 401 676.8 409 979.2 405C1281.6 401 1267.2 401 1440 407" stroke="#C49B67" stroke-opacity="0.1" stroke-width="0.7"/>
<path id="Vector_37" d="M0 422C331.2 413 676.8 431 979.2 422C1281.6 413 1267.2 413 1440 424" stroke="#C49B67" stroke-opacity="0.1" stroke-width="0.7"/>
<path id="Vector_38" d="M0 439C331.2 425 676.8 453 979.2 439C1281.6 425 1267.2 425 1440 441" stroke="#C49B67" stroke-opacity="0.1" stroke-width="0.7"/>
<path id="Vector_39" d="M0 456C331.2 456 676.8 456 979.2 456C1281.6 456 1267.2 456 1440 458" stroke="#C49B67" stroke-opacity="0.1" stroke-width="0.7"/>
<path id="Vector_40" d="M0 473C331.2 468 676.8 478 979.2 473C1281.6 468 1267.2 468 1440 475" stroke="#C49B67" stroke-opacity="0.1" stroke-width="0.7"/>
<path id="Vector_41" d="M0 490C331.2 480 676.8 500 979.2 490C1281.6 480 1267.2 480 1440 492" stroke="#C49B67" stroke-opacity="0.1" stroke-width="0.7"/>
<path id="Vector_42" d="M0 507C331.2 492 676.8 522 979.2 507C1281.6 492 1267.2 492 1440 509" stroke="#C49B67" stroke-opacity="0.1" stroke-width="0.7"/>
<path id="Vector_43" d="M0 524C331.2 523 676.8 525 979.2 524C1281.6 523 1267.2 523 1440 526" stroke="#C49B67" stroke-opacity="0.1" stroke-width="0.7"/>
<path id="Vector_44" d="M0 541C331.2 535 676.8 547 979.2 541C1281.6 535 1267.2 535 1440 543" stroke="#C49B67" stroke-opacity="0.1" stroke-width="0.7"/>
<path id="Vector_45" d="M0 558C331.2 547 676.8 569 979.2 558C1281.6 547 1267.2 547 1440 560" stroke="#C49B67" stroke-opacity="0.1" stroke-width="0.7"/>
<path id="Vector_46" d="M0 575C331.2 559 676.8 591 979.2 575C1281.6 559 1267.2 559 1440 577" stroke="#C49B67" stroke-opacity="0.1" stroke-width="0.7"/>
<path id="Vector_47" d="M0 592C331.2 590 676.8 594 979.2 592C1281.6 590 1267.2 590 1440 594" stroke="#C49B67" stroke-opacity="0.1" stroke-width="0.7"/>
<path id="Vector_48" d="M0 609C331.2 602 676.8 616 979.2 609C1281.6 602 1267.2 602 1440 611" stroke="#C49B67" stroke-opacity="0.1" stroke-width="0.7"/>
<path id="Vector_49" d="M0 626C331.2 614 676.8 638 979.2 626C1281.6 614 1267.2 614 1440 628" stroke="#C49B67" stroke-opacity="0.1" stroke-width="0.7"/>
<path id="Vector_50" d="M0 643C331.2 626 676.8 660 979.2 643C1281.6 626 1267.2 626 1440 645" stroke="#C49B67" stroke-opacity="0.1" stroke-width="0.7"/>
<path id="Vector_51" d="M0 660C331.2 657 676.8 663 979.2 660C1281.6 657 1267.2 657 1440 662" stroke="#C49B67" stroke-opacity="0.1" stroke-width="0.7"/>
<path id="Vector_52" d="M0 677C331.2 669 676.8 685 979.2 677C1281.6 669 1267.2 669 1440 679" stroke="#C49B67" stroke-opacity="0.1" stroke-width="0.7"/>
<path id="Vector_53" d="M0 694C331.2 681 676.8 707 979.2 694C1281.6 681 1267.2 681 1440 696" stroke="#C49B67" stroke-opacity="0.1" stroke-width="0.7"/>
<path id="Vector_54" d="M0 711C331.2 693 676.8 729 979.2 711C1281.6 693 1267.2 693 1440 713" stroke="#C49B67" stroke-opacity="0.1" stroke-width="0.7"/>
<path id="Vector_55" d="M0 728C331.2 724 676.8 732 979.2 728C1281.6 724 1267.2 724 1440 730" stroke="#C49B67" stroke-opacity="0.1" stroke-width="0.7"/>
<path id="Vector_56" d="M0 745C331.2 736 676.8 754 979.2 745C1281.6 736 1267.2 736 1440 747" stroke="#C49B67" stroke-opacity="0.1" stroke-width="0.7"/>
<path id="Vector_57" d="M0 762C331.2 748 676.8 776 979.2 762C1281.6 748 1267.2 748 1440 764" stroke="#C49B67" stroke-opacity="0.1" stroke-width="0.7"/>
<path id="Vector_58" d="M0 779C331.2 779 676.8 779 979.2 779C1281.6 779 1267.2 779 1440 781" stroke="#C49B67" stroke-opacity="0.1" stroke-width="0.7"/>
<path id="Vector_59" d="M0 796C331.2 791 676.8 801 979.2 796C1281.6 791 1267.2 791 1440 798" stroke="#C49B67" stroke-opacity="0.1" stroke-width="0.7"/>
<path id="Vector_60" d="M0 813C331.2 803 676.8 823 979.2 813C1281.6 803 1267.2 803 1440 815" stroke="#C49B67" stroke-opacity="0.1" stroke-width="0.7"/>
<path id="Vector_61" d="M0 830C331.2 815 676.8 845 979.2 830C1281.6 815 1267.2 815 1440 832" stroke="#C49B67" stroke-opacity="0.1" stroke-width="0.7"/>
<path id="Vector_62" d="M0 847C331.2 846 676.8 848 979.2 847C1281.6 846 1267.2 846 1440 849" stroke="#C49B67" stroke-opacity="0.1" stroke-width="0.7"/>
<path id="Vector_63" d="M0 864C331.2 858 676.8 870 979.2 864C1281.6 858 1267.2 858 1440 866" stroke="#C49B67" stroke-opacity="0.1" stroke-width="0.7"/>
<path id="Vector_64" d="M0 881C331.2 870 676.8 892 979.2 881C1281.6 870 1267.2 870 1440 883" stroke="#C49B67" stroke-opacity="0.1" stroke-width="0.7"/>
<path id="Vector_65" d="M0 898C331.2 882 676.8 914 979.2 898C1281.6 882 1267.2 882 1440 900" stroke="#C49B67" stroke-opacity="0.1" stroke-width="0.7"/>
<path id="Vector_66" d="M0 915C331.2 913 676.8 917 979.2 915C1281.6 913 1267.2 913 1440 917" stroke="#C49B67" stroke-opacity="0.1" stroke-width="0.7"/>
<path id="Vector_67" d="M0 932C331.2 925 676.8 939 979.2 932C1281.6 925 1267.2 925 1440 934" stroke="#C49B67" stroke-opacity="0.1" stroke-width="0.7"/>
<path id="Vector_68" d="M0 949C331.2 937 676.8 961 979.2 949C1281.6 937 1267.2 937 1440 951" stroke="#C49B67" stroke-opacity="0.1" stroke-width="0.7"/>
<path id="Vector_69" d="M0 966C331.2 949 676.8 983 979.2 966C1281.6 949 1267.2 949 1440 968" stroke="#C49B67" stroke-opacity="0.1" stroke-width="0.7"/>
<path id="Vector_70" d="M0 983C331.2 980 676.8 986 979.2 983C1281.6 980 1267.2 980 1440 985" stroke="#C49B67" stroke-opacity="0.1" stroke-width="0.7"/>
<path id="Vector_71" d="M0 1000C331.2 992 676.8 1008 979.2 1000C1281.6 992 1267.2 992 1440 1002" stroke="#C49B67" stroke-opacity="0.1" stroke-width="0.7"/>
<path id="Vector_72" d="M0 1017C331.2 1004 676.8 1030 979.2 1017C1281.6 1004 1267.2 1004 1440 1019" stroke="#C49B67" stroke-opacity="0.1" stroke-width="0.7"/>
<path id="Vector_73" d="M0 1034C331.2 1016 676.8 1052 979.2 1034C1281.6 1016 1267.2 1016 1440 1036" stroke="#C49B67" stroke-opacity="0.1" stroke-width="0.7"/>
<path id="Vector_74" d="M0 1051C331.2 1047 676.8 1055 979.2 1051C1281.6 1047 1267.2 1047 1440 1053" stroke="#C49B67" stroke-opacity="0.1" stroke-width="0.7"/>
<path id="Vector_75" d="M0 1068C331.2 1059 676.8 1077 979.2 1068C1281.6 1059 1267.2 1059 1440 1070" stroke="#C49B67" stroke-opacity="0.1" stroke-width="0.7"/>
<path id="Vector_76" d="M0 1085C331.2 1071 676.8 1099 979.2 1085C1281.6 1071 1267.2 1071 1440 1087" stroke="#C49B67" stroke-opacity="0.1" stroke-width="0.7"/>
<path id="Vector_77" d="M0 1102C331.2 1102 676.8 1102 979.2 1102C1281.6 1102 1267.2 1102 1440 1104" stroke="#C49B67" stroke-opacity="0.1" stroke-width="0.7"/>
<path id="Vector_78" d="M0 1119C331.2 1114 676.8 1124 979.2 1119C1281.6 1114 1267.2 1114 1440 1121" stroke="#C49B67" stroke-opacity="0.1" stroke-width="0.7"/>
<path id="Vector_79" d="M0 1136C331.2 1126 676.8 1146 979.2 1136C1281.6 1126 1267.2 1126 1440 1138" stroke="#C49B67" stroke-opacity="0.1" stroke-width="0.7"/>
<path id="Vector_80" d="M0 1153C331.2 1138 676.8 1168 979.2 1153C1281.6 1138 1267.2 1138 1440 1155" stroke="#C49B67" stroke-opacity="0.1" stroke-width="0.7"/>
<path id="Vector_81" d="M0 1170C331.2 1169 676.8 1171 979.2 1170C1281.6 1169 1267.2 1169 1440 1172" stroke="#C49B67" stroke-opacity="0.1" stroke-width="0.7"/>
<path id="Vector_82" d="M0 1187C331.2 1181 676.8 1193 979.2 1187C1281.6 1181 1267.2 1181 1440 1189" stroke="#C49B67" stroke-opacity="0.1" stroke-width="0.7"/>
<path id="Vector_83" d="M0 1204C331.2 1193 676.8 1215 979.2 1204C1281.6 1193 1267.2 1193 1440 1206" stroke="#C49B67" stroke-opacity="0.1" stroke-width="0.7"/>
<path id="Vector_84" d="M0 1221C331.2 1205 676.8 1237 979.2 1221C1281.6 1205 1267.2 1205 1440 1223" stroke="#C49B67" stroke-opacity="0.1" stroke-width="0.7"/>
<path id="Vector_85" d="M0 1238C331.2 1236 676.8 1240 979.2 1238C1281.6 1236 1267.2 1236 1440 1240" stroke="#C49B67" stroke-opacity="0.1" stroke-width="0.7"/>
<path id="Vector_86" d="M0 1255C331.2 1248 676.8 1262 979.2 1255C1281.6 1248 1267.2 1248 1440 1257" stroke="#C49B67" stroke-opacity="0.1" stroke-width="0.7"/>
<path id="Vector_87" d="M0 1272C331.2 1260 676.8 1284 979.2 1272C1281.6 1260 1267.2 1260 1440 1274" stroke="#C49B67" stroke-opacity="0.1" stroke-width="0.7"/>
<path id="Vector_88" d="M0 1289C331.2 1272 676.8 1306 979.2 1289C1281.6 1272 1267.2 1272 1440 1291" stroke="#C49B67" stroke-opacity="0.1" stroke-width="0.7"/>
<path id="Vector_89" d="M0 1306C331.2 1303 676.8 1309 979.2 1306C1281.6 1303 1267.2 1303 1440 1308" stroke="#C49B67" stroke-opacity="0.1" stroke-width="0.7"/>
<path id="Vector_90" d="M0 1323C331.2 1315 676.8 1331 979.2 1323C1281.6 1315 1267.2 1315 1440 1325" stroke="#C49B67" stroke-opacity="0.1" stroke-width="0.7"/>
<path id="Vector_91" d="M0 1340C331.2 1327 676.8 1353 979.2 1340C1281.6 1327 1267.2 1327 1440 1342" stroke="#C49B67" stroke-opacity="0.1" stroke-width="0.7"/>
<path id="Vector_92" d="M0 1357C331.2 1339 676.8 1375 979.2 1357C1281.6 1339 1267.2 1339 1440 1359" stroke="#C49B67" stroke-opacity="0.1" stroke-width="0.7"/>
<path id="Vector_93" d="M0 1374C331.2 1370 676.8 1378 979.2 1374C1281.6 1370 1267.2 1370 1440 1376" stroke="#C49B67" stroke-opacity="0.1" stroke-width="0.7"/>
<path id="Vector_94" d="M0 1391C331.2 1382 676.8 1400 979.2 1391C1281.6 1382 1267.2 1382 1440 1393" stroke="#C49B67" stroke-opacity="0.1" stroke-width="0.7"/>
<path id="Vector_95" d="M0 1408C331.2 1394 676.8 1422 979.2 1408C1281.6 1394 1267.2 1394 1440 1410" stroke="#C49B67" stroke-opacity="0.1" stroke-width="0.7"/>
<path id="Vector_96" d="M0 1425C331.2 1425 676.8 1425 979.2 1425C1281.6 1425 1267.2 1425 1440 1427" stroke="#C49B67" stroke-opacity="0.1" stroke-width="0.7"/>
<path id="Vector_97" d="M0 1442C331.2 1437 676.8 1447 979.2 1442C1281.6 1437 1267.2 1437 1440 1444" stroke="#C49B67" stroke-opacity="0.1" stroke-width="0.7"/>
<path id="Vector_98" d="M0 1459C331.2 1449 676.8 1469 979.2 1459C1281.6 1449 1267.2 1449 1440 1461" stroke="#C49B67" stroke-opacity="0.1" stroke-width="0.7"/>
<path id="Vector_99" d="M0 1476C331.2 1461 676.8 1491 979.2 1476C1281.6 1461 1267.2 1461 1440 1478" stroke="#C49B67" stroke-opacity="0.1" stroke-width="0.7"/>
<path id="Vector_100" d="M0 1493C331.2 1492 676.8 1494 979.2 1493C1281.6 1492 1267.2 1492 1440 1495" stroke="#C49B67" stroke-opacity="0.1" stroke-width="0.7"/>
</g>
<defs>
<clipPath id="clip0_0_114">
<rect width="1440" height="1504" fill="white"/>
</clipPath>
</defs>
</svg>
